<svg width="20" height="20" viewBox="0 0 20 20" fill="none" xmlns="http://www.w3.org/2000/svg">
<path d="M3.33301 10H12.083" stroke="#394150" stroke-width="1.6" stroke-linecap="square"/>
<path d="M16.666 10H16.2493" stroke="#394150" stroke-width="1.6" stroke-linecap="square"/>
<path d="M3.33301 15H4.58301" stroke="#394150" stroke-width="1.6" stroke-linecap="square"/>
<path d="M3.33301 5H4.58301" stroke="#394150" stroke-width="1.6" stroke-linecap="square"/>
<path d="M9.16602 15H16.666" stroke="#394150" stroke-width="1.6" stroke-linecap="square"/>
<path d="M9.16602 5H16.666" stroke="#394150" stroke-width="1.6" stroke-linecap="square"/>
<path d="M8.36602 5C8.36602 5.93888 7.6049 6.7 6.66602 6.7C5.72713 6.7 4.96602 5.93888 4.96602 5C4.96602 4.06112 5.72713 3.3 6.66602 3.3C7.6049 3.3 8.36602 4.06112 8.36602 5Z" stroke="#394150" stroke-width="1.6"/>
<path d="M15.866 10C15.866 10.9389 15.1049 11.7 14.166 11.7C13.2271 11.7 12.466 10.9389 12.466 10C12.466 9.06112 13.2271 8.3 14.166 8.3C15.1049 8.3 15.866 9.06112 15.866 10Z" stroke="#394150" stroke-width="1.6"/>
<path d="M8.36602 15C8.36602 15.9389 7.6049 16.7 6.66602 16.7C5.72713 16.7 4.96602 15.9389 4.96602 15C4.96602 14.0611 5.72713 13.3 6.66602 13.3C7.6049 13.3 8.36602 14.0611 8.36602 15Z" stroke="#394150" stroke-width="1.6"/>
</svg>
