<svg width="32" height="32" viewBox="0 0 32 32" fill="none" xmlns="http://www.w3.org/2000/svg">
<g clip-path="url(#clip0_26059_13612)">
<path d="M32 16L29.83 18.192L31.221 20.945L28.477 22.356L28.945 25.406L25.899 25.9L25.406 28.945L22.356 28.477L20.945 31.221L18.192 29.83L16 32L13.808 29.83L11.055 31.221L9.644 28.477L6.594 28.945L6.1 25.899L3.055 25.406L3.523 22.356L0.779 20.945L2.17 18.192L0 16L2.17 13.808L0.779 11.055L3.523 9.644L3.055 6.594L6.101 6.1L6.594 3.055L9.644 3.523L11.055 0.779L13.808 2.17L16 0L18.192 2.17L20.945 0.779L22.356 3.523L25.406 3.055L25.9 6.101L28.945 6.594L28.477 9.644L31.221 11.055L29.83 13.808L32 16Z" fill="#FF334C"/>
<path d="M10.1412 13.4033L6.80078 17.0066H8.91707L12.244 13.4033H10.1412Z" fill="white"/>
<path d="M10.3994 14.2666H12.4977L15.4386 17.0062H13.3223L10.3994 14.2666Z" fill="white"/>
<path d="M15.4384 17.4189H6.7998V18.3644H15.4384V17.4189Z" fill="white"/>
<path d="M12.1011 20.325V18.2012H10.1357V20.2949L12.1011 20.325Z" fill="white"/>
<path d="M15.2032 12.8652H7.03613V13.8107H15.2032V12.8652Z" fill="white"/>
<path d="M12.1018 12H10.1357V13.36H12.1018V12Z" fill="white"/>
<path d="M18.3136 13.3389L16.1846 17.0135H18.1507L20.279 13.3389H18.3136Z" fill="white"/>
<path d="M22.6498 17.0133L20.7512 14.2744H18.7852L20.6837 17.0133H22.6498Z" fill="white"/>
<path d="M22.4372 12.8682H16.3955V13.8189H22.4372V12.8682Z" fill="white"/>
<path d="M20.3987 13.3127V12H18.4326V13.2947L20.3987 13.3127Z" fill="white"/>
<path d="M23.1253 14.1172H22.167V15.0184H23.1253V14.1172Z" fill="white"/>
<path d="M24.3228 12H23.1279V17.0061H25.094V14.7929V13.8917V12.9996L24.3228 12Z" fill="white"/>
<path d="M18.9988 17.4189H16.9756L16.9763 19.3137L17.7499 20.314H25.093V19.3648H18.9988V17.4189Z" fill="white"/>
</g>
<defs>
<clipPath id="clip0_26059_13612">
<rect width="32" height="32" fill="white"/>
</clipPath>
</defs>
</svg>
